<?xml version="1.0" encoding="UTF-8" standalone="no"?>
<svg
   xmlns:dc="http://purl.org/dc/elements/1.1/"
   xmlns:cc="http://creativecommons.org/ns#"
   xmlns:rdf="http://www.w3.org/1999/02/22-rdf-syntax-ns#"
   xmlns:svg="http://www.w3.org/2000/svg"
   xmlns="http://www.w3.org/2000/svg"
   xmlns:sodipodi="http://sodipodi.sourceforge.net/DTD/sodipodi-0.dtd"
   xmlns:inkscape="http://www.inkscape.org/namespaces/inkscape"
   id="logo-30"
   width="44.939739"
   height="33.704899"
   viewBox="0 0 44.939739 33.704899"
   fill="none"
   version="1.1"
   sodipodi:docname="logo-admin-icon-white.svg"
   inkscape:version="1.0beta2 (2b71d25, 2019-12-03)">
  <metadata
     id="metadata41">
    <rdf:RDF>
      <cc:Work
         rdf:about="">
        <dc:format>image/svg+xml</dc:format>
        <dc:type
           rdf:resource="http://purl.org/dc/dcmitype/StillImage" />
        <dc:title></dc:title>
      </cc:Work>
    </rdf:RDF>
  </metadata>
  <defs
     id="defs39" />
  <sodipodi:namedview
     pagecolor="#ffffff"
     bordercolor="#666666"
     inkscape:document-rotation="0"
     borderopacity="1"
     objecttolerance="10"
     gridtolerance="10"
     guidetolerance="10"
     inkscape:pageopacity="0"
     inkscape:pageshadow="2"
     inkscape:window-width="1901"
     inkscape:window-height="636"
     id="namedview37"
     showgrid="false"
     inkscape:zoom="5.6875981"
     inkscape:cx="39.397462"
     inkscape:cy="17.549534"
     inkscape:window-x="2"
     inkscape:window-y="128"
     inkscape:window-maximized="0"
     inkscape:current-layer="logo-30" />
  <path
     inkscape:connector-curvature="0"
     style="fill:#f0f0f0;fill-opacity:1"
     d="m 15.12294,0 h 8.9988 l -3.6121,10.0943 c -6.3576,1.1172 -11.2202,7.2682 -11.2202,14.6887 0,3.3475 0.9896,6.4367 2.6595,8.9219 H 0 L 10.92364,3.17808 C 11.61044,1.25863 13.27354,0 15.12294,0 Z"
     class="ccompli1"
     fill="#341492"
     id="path28" />
  <path
     style="fill:#000000;fill-opacity:0.15384616"
     inkscape:connector-curvature="0"
     d="M 24.12154,0 21.58294,7.09426 20.81804,0 Z"
     fill="black"
     fill-opacity="0.3"
     id="path30" />
  <path
     inkscape:connector-curvature="0"
     style="fill:#fafafa;fill-opacity:1"
     d="m 29.81684,0 h -8.9988 l 3.5969,10.0517 c 6.4841,0.9935 11.4792,7.2103 11.4792,14.7313 0,3.3475 -0.9896,6.4367 -2.6595,8.9219 h 11.7051 L 34.01614,3.17809 C 33.32934,1.25863 31.66624,0 29.81684,0 Z"
     class="ccustom"
     fill="#4C28B5"
     id="path32" />
  <path
     inkscape:connector-curvature="0"
     style="fill:#fafafa;fill-opacity:1"
     d="m 13.51804,32.7334 c -1.5378,-2.19 -2.4548,-4.9505 -2.4548,-7.9505 0,-7.1174 5.1616,-12.8871 11.5287,-12.8871 6.3672,0 11.5288,5.7697 11.5288,12.8871 0,3 -0.917,5.7605 -2.4548,7.9505 -2.5245,-1.8794 -5.6673,-2.9939 -9.074,-2.9939 -3.4066,0 -6.5494,1.1145 -9.0739,2.9939 z"
     class="ccustom"
     fill="#4C28B5"
     id="path34" />
</svg>
